<svg width="200" height="200" viewBox="-102.4 -102.4 1228.80 1228.80" xmlns="http://www.w3.org/2000/svg">
<g fill="none" fill-rule="evenodd">

<!-- Background blob -->
<path transform="translate(-102.4, -102.4), scale(38.4)" d="M16,26.378086917102337C19.111794174181906,26.088622265447093,22.073207427686736,24.838351966926382,23.939883297070647,22.331845640245724C25.734559156881904,19.922018379531938,25.777394289058225,16.84304149291674,25.311700273075612,13.874665177193515C24.78688175250077,10.529423853359479,24.25648794434283,6.657540744127362,21.23958413527695,5.119891433956459C18.181559229939555,3.5612836082620043,14.556605579068112,5.125731429380382,11.61455679004106,6.893533341067387C9.044511589615507,8.43780780564444,7.6150314899180875,11.024511699493408,6.674696225041622,13.871560266659918C5.557515156866658,17.254044023483534,3.833881566531633,21.14833267272141,5.963217152588133,24.00406723080232C8.125312541948581,26.903737231949904,12.398540837580121,26.71310108049074,16,26.378086917102337" fill="#7ed6ec" stroke-width="0"/>

<!-- Wing (back) -->
<path d="M484.32 375.24C575.25 255.5 857.87 527.6 788.67 581.07c-94.76 73.21-491.01 39.99-304.35-205.83z" fill="#1C8A6A"/>

<!-- Legs -->
<path d="M401.03 749.89l-4.85 133.8-77.69 21.37h66.36l19.42 35.27 4.86-35.27 40.46 6.14-38.84-25.89 8.09-114.91-17.81-20.51zM524.36 771.23l10.48 133.48-74.73 30.11 65.92-7.59 23.33 32.82 0.79-35.6 40.89 1.48-41.54-21.28-5.11-115.08-20.03-18.34z" fill="#3B5174"/>

<!-- Beak -->
<path d="M224.73 264.77l-24 50.19a21.7 21.7 0 0 1-37.73 2.5l-31.57-48.27a21.7 21.7 0 0 1 17.41-33.57l55.61-1.92a21.7 21.7 0 0 1 20.28 31.07z" fill="#DE7B56"/>

<!-- Body -->
<path d="M900.53 638.76c-18.3 86.91-221.86 208.13-478 171.54C150.46 771.44 26 281.88 315 103.56c161.25-99.49 326.71 5 356.8 130.37C713 405.47 583.15 534.58 749.57 609c86.91 38.91 164.43-34.33 150.96 29.76z" fill="#35B05A"/>

<!-- Eye -->
<path d="M365.86 264.78m-32.45 0a32.45 32.45 0 1 0 64.9 0 32.45 32.45 0 1 0-64.9 0Z" fill="#000"/>

<!-- Wing overlay + feather details -->
<path d="M512.24 366c137.48-60.86 253.34 314 166.92 327.31C560.81 711.56 230 490.92 512.24 366z" fill="#F5D632"/>
<path d="M223.3 530c-9.34-2.6-17.2-12.8-23.94-31a195 195 0 0 1-7.64-27 7.28 7.28 0 0 1 14.3-2.79c4.79 24.5 15 46.44 21.91 46.93 1.12 0.08 11.43-0.5 27.23-45.51a7.28 7.28 0 1 1 13.74 4.82c-13.61 38.77-27 56.31-42 55.22a18.18 18.18 0 0 1-3.6-0.67z" fill="#F5D632"/>
<path d="M340.8 590.36c-9.63 1.14-20.77-5.32-33.92-19.63a195 195 0 0 1-17.32-22.11 7.28 7.28 0 0 1 12.17-8c13.73 20.85 31.53 37.27 38.07 35.12 1.07-0.35 10.38-4.8 7.93-52.44a7.28 7.28 0 1 1 14.55-0.75c2.11 41-3.59 62.33-17.95 67a18.18 18.18 0 0 1-3.53 0.81z" fill="#F5D632"/>
<path d="M261.5 659.71c-9-0.19-18.35-7.55-28.56-22.35a180.41 180.41 0 0 1-13-22.49 6.74 6.74 0 0 1 12.18-5.77c9.9 20.88 24.1 38.21 30.37 37.08 1-0.18 10.13-3.07 14-47a6.74 6.74 0 1 1 13.43 1.18c-3.34 37.87-11.31 56.66-25.07 59.12a16.82 16.82 0 0 1-3.35 0.23z" fill="#F5D632"/>
<path d="M389.28 722.29c-9.26 2.85-21.38-1.51-36.89-13.22a195 195 0 0 1-21-18.64 7.28 7.28 0 0 1 10.53-10.06c17.25 18.05 37.7 31 43.75 27.71 1-0.54 9.35-6.59-1.61-53a7.28 7.28 0 1 1 14.17-3.35c9.44 40 7.65 62-5.63 69.16a18.18 18.18 0 0 1-3.32 1.4z" fill="#F5D632"/>

</g>
</svg>
